<?xml version="1.0" encoding="UTF-8"?>
<!DOCTYPE svg PUBLIC "-//W3C//DTD SVG 1.1//EN" "http://www.w3.org/Graphics/SVG/1.1/DTD/svg11.dtd">
<!-- Creator: CorelDRAW -->
<svg xmlns="http://www.w3.org/2000/svg" xml:space="preserve" width="351px" height="82px" style="shape-rendering:geometricPrecision; text-rendering:geometricPrecision; image-rendering:optimizeQuality; fill-rule:evenodd; clip-rule:evenodd"
viewBox="0 0 351 81.9">
 <defs>
  <style type="text/css">
   <![CDATA[
    .str0 {stroke:black;stroke-width:6.60395;stroke-linecap:round}
    .fil0 {fill:none}
   ]]>
  </style>
 </defs>
 <g id="Layer_x0020_1">
  <metadata id="CorelCorpID_0Corel-Layer"/>
  <line class="fil0 str0" x1="9.945" y1="20.8066" x2="55.6852" y2= "15.8617" />
  <line class="fil0 str0" x1="78.7927" y1="20.8066" x2="124.533" y2= "15.8617" />
  <line class="fil0 str0" x1="101.663" y1="18.3341" x2="104.135" y2= "64.0743" />
  <line class="fil0 str0" x1="148.021" y1="20.8066" x2="193.761" y2= "15.8617" />
  <line class="fil0 str0" x1="170.891" y1="18.3341" x2="173.364" y2= "64.0743" />
  <line class="fil0 str0" x1="172.128" y1="41.2044" x2="189.435" y2= "39.3499" />
  <line class="fil0 str0" x1="218.486" y1="20.8066" x2="264.226" y2= "15.8617" />
  <line class="fil0 str0" x1="241.356" y1="18.3341" x2="243.828" y2= "64.0743" />
  <line class="fil0 str0" x1="242.592" y1="41.2044" x2="259.899" y2= "39.3499" />
  <line class="fil0 str0" x1="227.757" y1="43.0583" x2="230.23" y2= "64.0741" />
  <line class="fil0 str0" x1="288.95" y1="20.8066" x2="334.691" y2= "15.8617" />
  <line class="fil0 str0" x1="311.821" y1="18.3341" x2="314.293" y2= "64.0743" />
  <line class="fil0 str0" x1="313.057" y1="41.2044" x2="330.364" y2= "39.3499" />
  <line class="fil0 str0" x1="298.222" y1="43.0583" x2="300.694" y2= "64.0741" />
  <line class="fil0 str0" x1="291.423" y1="67.783" x2="337.163" y2= "62.8381" />
 </g>
</svg>
