<?xml version="1.0" encoding="UTF-8" standalone="no"?><svg xmlns="http://www.w3.org/2000/svg" xmlns:xlink="http://www.w3.org/1999/xlink" contentScriptType="application/ecmascript" contentStyleType="text/css" height="611px" preserveAspectRatio="none" style="width:275px;height:611px;" version="1.1" viewBox="0 0 275 611" width="275px" zoomAndPan="magnify"><defs><filter height="300%" id="f1apuj1pg6ai0q" width="300%" x="-1" y="-1"><feGaussianBlur result="blurOut" stdDeviation="2.0"/><feColorMatrix in="blurOut" result="blurOut2" type="matrix" values="0 0 0 0 0 0 0 0 0 0 0 0 0 0 0 0 0 0 .4 0"/><feOffset dx="4.0" dy="4.0" in="blurOut2" result="blurOut3"/><feBlend in="SourceGraphic" in2="blurOut3" mode="normal"/></filter></defs><g><!--class choice--><rect fill="#FEFECE" filter="url(#f1apuj1pg6ai0q)" height="112.7754" id="choice" style="stroke: #A80036; stroke-width: 1.5;" width="193" x="71.5" y="8"/><ellipse cx="141.75" cy="24" fill="#ADD1B2" rx="11" ry="11" style="stroke: #A80036; stroke-width: 1.0;"/><path d="M145.3643,30.5 L137.6445,30.5 L137.6445,18.1069 L145.3643,18.1069 L145.3643,20.2651 L140.0933,20.2651 L140.0933,22.938 L144.8662,22.938 L144.8662,25.0962 L140.0933,25.0962 L140.0933,28.3418 L145.3643,28.3418 Z "/><text fill="#000000" font-family="sans-serif" font-size="12" lengthAdjust="spacingAndGlyphs" textLength="44" x="162.25" y="28.5352">Choices</text><line style="stroke: #A80036; stroke-width: 1.5;" x1="72.5" x2="263.5" y1="40" y2="40"/><ellipse cx="82.5" cy="51.9775" fill="#000000" rx="3" ry="3" style="stroke: #000000; stroke-width: 1.0;"/><text fill="#000000" font-family="sans-serif" font-size="11" lengthAdjust="spacingAndGlyphs" textLength="130" x="91.5" y="54.6348">id : number «generated»</text><ellipse cx="82.5" cy="64.9326" fill="#000000" rx="3" ry="3" style="stroke: #000000; stroke-width: 1.0;"/><text fill="#000000" font-family="sans-serif" font-size="11" lengthAdjust="spacingAndGlyphs" textLength="167" x="91.5" y="67.5898">read_token: string «generated»</text><ellipse cx="82.5" cy="77.8877" fill="#000000" rx="3" ry="3" style="stroke: #000000; stroke-width: 1.0;"/><text fill="#000000" font-family="sans-serif" font-size="11" lengthAdjust="spacingAndGlyphs" textLength="163" x="91.5" y="80.5449">edit_token: string «generated»</text><line style="stroke: #A80036; stroke-width: 1.0;" x1="72.5" x2="263.5" y1="86.8652" y2="86.8652"/><text fill="#000000" font-family="sans-serif" font-size="11" lengthAdjust="spacingAndGlyphs" textLength="47" x="77.5" y="101.5">title: text</text><text fill="#000000" font-family="sans-serif" font-size="11" lengthAdjust="spacingAndGlyphs" textLength="88" x="77.5" y="114.4551">description: text</text><!--class alt--><rect fill="#FEFECE" filter="url(#f1apuj1pg6ai0q)" height="99.8203" id="alt" style="stroke: #A80036; stroke-width: 1.5;" width="153" x="26.5" y="181"/><ellipse cx="65.8" cy="197" fill="#ADD1B2" rx="11" ry="11" style="stroke: #A80036; stroke-width: 1.0;"/><path d="M69.4143,203.5 L61.6945,203.5 L61.6945,191.1069 L69.4143,191.1069 L69.4143,193.2651 L64.1433,193.2651 L64.1433,195.938 L68.9162,195.938 L68.9162,198.0962 L64.1433,198.0962 L64.1433,201.3418 L69.4143,201.3418 Z "/><text fill="#000000" font-family="sans-serif" font-size="12" lengthAdjust="spacingAndGlyphs" textLength="67" x="85.2" y="201.5352">Alternatives</text><line style="stroke: #A80036; stroke-width: 1.5;" x1="27.5" x2="178.5" y1="213" y2="213"/><ellipse cx="37.5" cy="224.9775" fill="#000000" rx="3" ry="3" style="stroke: #000000; stroke-width: 1.0;"/><text fill="#000000" font-family="sans-serif" font-size="11" lengthAdjust="spacingAndGlyphs" textLength="127" x="46.5" y="227.6348">id: number «generated»</text><ellipse cx="37.5" cy="237.9326" fill="#000000" rx="3" ry="3" style="stroke: #000000; stroke-width: 1.0;"/><text fill="#000000" font-family="sans-serif" font-size="11" lengthAdjust="spacingAndGlyphs" textLength="127" x="46.5" y="240.5898">choice_id: number «FK»</text><line style="stroke: #A80036; stroke-width: 1.0;" x1="27.5" x2="178.5" y1="246.9102" y2="246.9102"/><text fill="#000000" font-family="sans-serif" font-size="11" lengthAdjust="spacingAndGlyphs" textLength="47" x="32.5" y="261.5449">title: text</text><text fill="#000000" font-family="sans-serif" font-size="11" lengthAdjust="spacingAndGlyphs" textLength="88" x="32.5" y="274.5">description: text</text><!--class pref--><rect fill="#FEFECE" filter="url(#f1apuj1pg6ai0q)" height="112.7754" id="pref" style="stroke: #A80036; stroke-width: 1.5;" width="153" x="90.5" y="488"/><ellipse cx="129.35" cy="504" fill="#ADD1B2" rx="11" ry="11" style="stroke: #A80036; stroke-width: 1.0;"/><path d="M132.9643,510.5 L125.2445,510.5 L125.2445,498.1069 L132.9643,498.1069 L132.9643,500.2651 L127.6933,500.2651 L127.6933,502.938 L132.4662,502.938 L132.4662,505.0962 L127.6933,505.0962 L127.6933,508.3418 L132.9643,508.3418 Z "/><text fill="#000000" font-family="sans-serif" font-size="12" lengthAdjust="spacingAndGlyphs" textLength="68" x="148.65" y="508.5352">Preferences</text><line style="stroke: #A80036; stroke-width: 1.5;" x1="91.5" x2="242.5" y1="520" y2="520"/><ellipse cx="101.5" cy="531.9775" fill="#000000" rx="3" ry="3" style="stroke: #000000; stroke-width: 1.0;"/><text fill="#000000" font-family="sans-serif" font-size="11" lengthAdjust="spacingAndGlyphs" textLength="127" x="110.5" y="534.6348">id: number «generated»</text><ellipse cx="101.5" cy="544.9326" fill="#000000" rx="3" ry="3" style="stroke: #000000; stroke-width: 1.0;"/><text fill="#000000" font-family="sans-serif" font-size="11" lengthAdjust="spacingAndGlyphs" textLength="127" x="110.5" y="547.5898">choice_id: number «FK»</text><line style="stroke: #A80036; stroke-width: 1.0;" x1="91.5" x2="242.5" y1="553.9102" y2="553.9102"/><text fill="#000000" font-family="sans-serif" font-size="11" lengthAdjust="spacingAndGlyphs" textLength="51" x="96.5" y="568.5449">host: text</text><text fill="#000000" font-family="sans-serif" font-size="11" lengthAdjust="spacingAndGlyphs" textLength="37" x="96.5" y="581.5">ip: text</text><text fill="#000000" font-family="sans-serif" font-size="11" lengthAdjust="spacingAndGlyphs" textLength="50" x="96.5" y="594.4551">chef: text</text><!--class expr--><rect fill="#FEFECE" filter="url(#f1apuj1pg6ai0q)" height="86.8652" id="expr" style="stroke: #A80036; stroke-width: 1.5;" width="180" x="6" y="341"/><ellipse cx="57.25" cy="357" fill="#ADD1B2" rx="11" ry="11" style="stroke: #A80036; stroke-width: 1.0;"/><path d="M60.8643,363.5 L53.1445,363.5 L53.1445,351.1069 L60.8643,351.1069 L60.8643,353.2651 L55.5933,353.2651 L55.5933,355.938 L60.3662,355.938 L60.3662,358.0962 L55.5933,358.0962 L55.5933,361.3418 L60.8643,361.3418 Z "/><text fill="#000000" font-family="sans-serif" font-size="12" lengthAdjust="spacingAndGlyphs" textLength="69" x="77.75" y="361.5352">Expressions</text><line style="stroke: #A80036; stroke-width: 1.5;" x1="7" x2="185" y1="373" y2="373"/><ellipse cx="17" cy="384.9775" fill="#000000" rx="3" ry="3" style="stroke: #000000; stroke-width: 1.0;"/><text fill="#000000" font-family="sans-serif" font-size="11" lengthAdjust="spacingAndGlyphs" textLength="148" x="26" y="387.6348">alternative_id: number «FK»</text><ellipse cx="17" cy="397.9326" fill="#000000" rx="3" ry="3" style="stroke: #000000; stroke-width: 1.0;"/><text fill="#000000" font-family="sans-serif" font-size="11" lengthAdjust="spacingAndGlyphs" textLength="150" x="26" y="400.5898">preference_id: number «FK»</text><line style="stroke: #A80036; stroke-width: 1.0;" x1="7" x2="185" y1="406.9102" y2="406.9102"/><text fill="#000000" font-family="sans-serif" font-size="11" lengthAdjust="spacingAndGlyphs" textLength="168" x="12" y="421.5449">sequence: number «generated»</text><!--link choice to pref--><path d="M214.75,129.4472 C214.75,129.4472 214.75,479.9987 214.75,479.9987 " fill="none" id="choice-pref" style="stroke: #A80036; stroke-width: 1.0;"/><line style="stroke: #A80036; stroke-width: 1.0;" x1="214.75" x2="220.75" y1="479.9987" y2="487.9987"/><line style="stroke: #A80036; stroke-width: 1.0;" x1="214.75" x2="208.75" y1="479.9987" y2="487.9987"/><line style="stroke: #A80036; stroke-width: 1.0;" x1="214.75" x2="214.75" y1="479.9987" y2="487.9987"/><ellipse cx="214.75" cy="473.9987" fill="none" rx="4" ry="4" style="stroke: #A80036; stroke-width: 1.0;"/><line style="stroke: #A80036; stroke-width: 1.0;" x1="210.75" x2="218.75" y1="125.4472" y2="125.4472"/><line style="stroke: #A80036; stroke-width: 1.0;" x1="210.75" x2="218.75" y1="128.4472" y2="128.4472"/><line style="stroke: #A80036; stroke-width: 1.0;" x1="214.75" x2="214.75" y1="129.4472" y2="121.4472"/><!--link choice to alt--><path d="M125.5,129.3342 C125.5,129.3342 125.5,172.8284 125.5,172.8284 " fill="none" id="choice-alt" style="stroke: #A80036; stroke-width: 1.0;"/><line style="stroke: #A80036; stroke-width: 1.0;" x1="125.5" x2="131.5" y1="172.8284" y2="180.8284"/><line style="stroke: #A80036; stroke-width: 1.0;" x1="125.5" x2="119.5" y1="172.8284" y2="180.8284"/><line style="stroke: #A80036; stroke-width: 1.0;" x1="125.5" x2="125.5" y1="172.8284" y2="180.8284"/><line style="stroke: #A80036; stroke-width: 1.0;" x1="129.5" x2="121.5" y1="170.8284" y2="170.8284"/><line style="stroke: #A80036; stroke-width: 1.0;" x1="121.5" x2="129.5" y1="125.3342" y2="125.3342"/><line style="stroke: #A80036; stroke-width: 1.0;" x1="121.5" x2="129.5" y1="128.3342" y2="128.3342"/><line style="stroke: #A80036; stroke-width: 1.0;" x1="125.5" x2="125.5" y1="129.3342" y2="121.3342"/><text fill="#000000" font-family="sans-serif" font-size="13" lengthAdjust="spacingAndGlyphs" textLength="18" x="109.3984" y="170.3212">2+</text><!--link alt to expr--><path d="M103,289.2616 C103,289.2616 103,332.8339 103,332.8339 " fill="none" id="alt-expr" style="stroke: #A80036; stroke-width: 1.0;"/><line style="stroke: #A80036; stroke-width: 1.0;" x1="103" x2="109" y1="332.8339" y2="340.8339"/><line style="stroke: #A80036; stroke-width: 1.0;" x1="103" x2="97" y1="332.8339" y2="340.8339"/><line style="stroke: #A80036; stroke-width: 1.0;" x1="103" x2="103" y1="332.8339" y2="340.8339"/><ellipse cx="103" cy="326.8339" fill="none" rx="4" ry="4" style="stroke: #A80036; stroke-width: 1.0;"/><line style="stroke: #A80036; stroke-width: 1.0;" x1="99" x2="107" y1="285.2616" y2="285.2616"/><line style="stroke: #A80036; stroke-width: 1.0;" x1="99" x2="107" y1="288.2616" y2="288.2616"/><line style="stroke: #A80036; stroke-width: 1.0;" x1="103" x2="103" y1="289.2616" y2="281.2616"/><!--link expr to pref--><path d="M138.25,436.2207 C138.25,436.2207 138.25,479.9071 138.25,479.9071 " fill="none" id="expr-pref" style="stroke: #A80036; stroke-width: 1.0;"/><line style="stroke: #A80036; stroke-width: 1.0;" x1="142.25" x2="134.25" y1="483.9071" y2="483.9071"/><line style="stroke: #A80036; stroke-width: 1.0;" x1="142.25" x2="134.25" y1="480.9071" y2="480.9071"/><line style="stroke: #A80036; stroke-width: 1.0;" x1="138.25" x2="138.25" y1="479.9071" y2="487.9071"/><line style="stroke: #A80036; stroke-width: 1.0;" x1="138.25" x2="132.25" y1="436.2207" y2="428.2207"/><line style="stroke: #A80036; stroke-width: 1.0;" x1="138.25" x2="144.25" y1="436.2207" y2="428.2207"/><line style="stroke: #A80036; stroke-width: 1.0;" x1="138.25" x2="138.25" y1="436.2207" y2="428.2207"/><ellipse cx="138.25" cy="442.2207" fill="none" rx="4" ry="4" style="stroke: #A80036; stroke-width: 1.0;"/><!--
@startuml

skinparam linetype ortho

entity "Choices" as choice {
  *id : number <<generated>>
  *read_token: string <<generated>>
  *edit_token: string <<generated>>
  - -
  title: text
  description: text
}

entity "Alternatives" as alt {
  *id: number <<generated>>
  *choice_id: number <<FK>>
  - -
  title: text
  description: text
}

entity "Preferences" as pref {
  *id: number <<generated>>
  *choice_id: number <<FK>>
  - -
  host: text
  ip: text
  chef: text
}

entity "Expressions" as expr {
  *alternative_id: number <<FK>>
  *preference_id: number <<FK>>
  - -
  sequence: number <<generated>>
}

choice ||- -o{ pref
choice "2+" ||- -|{ alt
alt ||- -o{ expr
expr }o- -|| pref

@enduml

PlantUML version 1.2019.06(Fri May 24 14:10:25 UYT 2019)
(GPL source distribution)
Java Runtime: Java(TM) SE Runtime Environment
JVM: Java HotSpot(TM) 64-Bit Server VM
Java Version: 1.8.0_191-b12
Operating System: Mac OS X
OS Version: 10.14.5
Default Encoding: UTF-8
Language: en
Country: US
--></g></svg>